<?xml version="1.0" encoding="UTF-8" standalone="no"?><!DOCTYPE svg PUBLIC "-//W3C//DTD SVG 1.1//EN" "http://www.w3.org/Graphics/SVG/1.1/DTD/svg11.dtd"><svg width="100%" height="100%" viewBox="0 0 2550 3300" version="1.1" xmlns="http://www.w3.org/2000/svg" xmlns:xlink="http://www.w3.org/1999/xlink" xml:space="preserve" xmlns:serif="http://www.serif.com/" style="fill-rule:evenodd;clip-rule:evenodd;stroke-linecap:round;stroke-miterlimit:1.5;"><g id="New-Logo" serif:id="New Logo"><g id="Original"><path d="M462.372,1972.68c0,0 -319.951,-134.551 -275.566,-531.902c-0.47,0.017 131.024,-10.398 275.979,-109.468c0.126,0.375 103.659,86.361 276.521,109.054c0.636,0.48 57.607,384.067 -276.934,532.316Z" style="fill:none;stroke:#040000;stroke-width:54.93px;"/><path d="M479.126,1514.59l-40.707,-127.834c-0,0 170.93,21.737 139.151,182.955c0,0 76.385,7.808 104.064,87.532c-0,0 -27.065,-18.308 -46.37,-16.118c-0,-0 87.398,161.018 -16.618,275.541c0,0 7.816,-32.313 -12.556,-62.026c0,-0 -0.46,24.449 -11.03,43.978c-11.798,30.318 -110.87,101.63 -120.837,155.673c3.74,-42.751 9.443,-108.122 9.443,-108.122c-0,-0 -27.826,37.872 -63.202,141.52c-11.353,-16.749 -38.632,-61.37 -40.205,-77.355c-0,-0 -19.333,-58.797 -1.381,-117.71l-49.432,35.019c0,-0 30.749,-55.021 24.646,-120.56c0,0 24.57,9.717 38.101,56.89c12.074,47.108 10.394,56.875 23.737,79.581c1.787,-3.574 3.138,-28.293 71.725,-82.571c2.803,-2.234 77.374,-56.565 39.763,-166.212c-0,-0 65.484,29.339 77.468,75.849c0.858,-4.378 2.067,-113.868 -122.183,-144.74c-5.059,-2.001 -9.719,2.293 -40.476,-45.957c-0,0 -13.513,-17.31 -8.935,14.118c0,-0 4.633,23.686 -15.421,23.501c-0,-0 -131.563,4.989 -91.146,62.181c40.418,57.192 51.025,59.626 57.215,81.179c6.19,21.553 -2.023,32.366 -5.042,36.863c0,0 -20.367,-21.117 -59.768,-22.727c-0,-0 -63.491,-4.45 -78.896,17.025c0,0 -8.368,1.776 -9.41,8.437c1.602,3.618 5.537,8.82 -8.743,6.643c-14.28,-2.176 -82.31,-5.396 -64.781,-71.843c6.875,5.234 9.068,23.116 21.456,23.202c16.279,4.656 100.656,-11.337 102.373,-50.178c-8.714,-49.684 -140.747,-46.709 -118.164,20.332c-1.524,0.387 -10.526,-4.055 -39.649,-35.752c-4.468,-3.735 -7.775,-6.758 -15.38,-9.957c-5.448,-4.142 -20.561,-19.357 -28.386,-38.176c-5.828,-10.705 -2.279,-15.986 1.6,-18.4c9.618,-4.736 31.102,-3.389 55.198,-13.507c18.958,-10.875 18.246,-12.19 86.02,-23.75c32.804,-9.735 50.099,-64.801 84.933,-83.111c23.589,-12.543 101.638,-19.123 125.159,-18.872c-4.507,-2.155 -46.352,-6.928 -46.352,-6.928c0,0 -19.579,-34.113 -22.656,-70.882c-0,0 52.856,12.417 82.184,61.799c29.329,49.381 32.345,99.333 33.224,103.955c3.505,-0.96 45.685,-11.25 32.694,-65.942c-0.705,-1.579 -12.5,-36.313 -24.258,-46.682c-1.552,8.443 -8.17,52.139 -8.17,52.139Zm-182.085,47.772c25.814,-6.966 48.428,-14.924 71.94,-23.68l-27.172,45.092c0,-0 -24.518,-3.56 -63.09,13.266l18.322,-34.678Z"/></g><path d="M187.287,1617.91c-5.809,-44.841 -6.544,-122.849 -0.481,-177.127c-0.47,0.017 131.024,-10.398 275.979,-109.468c0.126,0.375 103.659,86.361 276.521,109.054c0.402,0.304 9.066,152.163 -84.221,361.437c-3.171,-67.882 6.692,-180.11 6.692,-180.11c18.701,-2.121 44.92,15.615 44.92,15.615c-26.813,-77.231 -100.81,-84.795 -100.81,-84.795c30.785,-156.176 -134.799,-177.233 -134.799,-177.233l39.434,123.836c0,0 6.41,-42.33 7.915,-50.509c11.39,10.045 22.815,43.693 23.498,45.222c12.585,52.982 -28.276,62.951 -31.671,63.88c-0.851,-4.477 -3.774,-52.867 -32.185,-100.704c-28.411,-47.838 -79.614,-59.866 -79.614,-59.866c2.98,35.619 21.948,68.665 21.948,68.665c-0,0 40.536,4.624 44.902,6.711c-22.785,-0.243 -98.393,6.131 -121.245,18.282c-33.744,17.738 -50.499,71.082 -82.277,80.512c-53.436,9.115 -62.923,40.287 -74.506,46.598Z" style="fill:none;stroke:#000;stroke-width:102.19px;"/><path d="M187.287,1617.91c-5.809,-44.841 -6.544,-122.849 -0.481,-177.127c-0.47,0.017 131.024,-10.398 275.979,-109.468c0.126,0.375 103.659,86.361 276.521,109.054c0.402,0.304 9.066,152.163 -84.221,361.437c-3.171,-67.882 6.692,-180.11 6.692,-180.11c18.701,-2.121 44.92,15.615 44.92,15.615c-26.813,-77.231 -100.81,-84.795 -100.81,-84.795c30.785,-156.176 -134.799,-177.233 -134.799,-177.233l39.434,123.836c0,0 6.41,-42.33 7.915,-50.509c11.39,10.045 22.815,43.693 23.498,45.222c12.585,52.982 -28.276,62.951 -31.671,63.88c-0.851,-4.477 -3.774,-52.867 -32.185,-100.704c-28.411,-47.838 -79.614,-59.866 -79.614,-59.866c2.98,35.619 21.948,68.665 21.948,68.665c-0,0 40.536,4.624 44.902,6.711c-22.785,-0.243 -98.393,6.131 -121.245,18.282c-33.744,17.738 -50.499,71.082 -82.277,80.512c-53.436,9.115 -62.923,40.287 -74.506,46.598Z" style="fill:#fff;"/><path d="M187.287,1617.91c-5.809,-44.841 -6.544,-122.849 -0.481,-177.127c-0.47,0.017 131.024,-10.398 275.979,-109.468c0.126,0.375 103.659,86.361 276.521,109.054c0.402,0.304 9.066,152.163 -84.221,361.437c-3.171,-67.882 6.692,-180.11 6.692,-180.11c18.701,-2.121 44.92,15.615 44.92,15.615c-26.813,-77.231 -100.81,-84.795 -100.81,-84.795c30.785,-156.176 -134.799,-177.233 -134.799,-177.233l39.434,123.836c0,0 6.41,-42.33 7.915,-50.509c11.39,10.045 22.815,43.693 23.498,45.222c12.585,52.982 -28.276,62.951 -31.671,63.88c-0.851,-4.477 -3.774,-52.867 -32.185,-100.704c-28.411,-47.838 -79.614,-59.866 -79.614,-59.866c2.98,35.619 21.948,68.665 21.948,68.665c-0,0 40.536,4.624 44.902,6.711c-22.785,-0.243 -98.393,6.131 -121.245,18.282c-33.744,17.738 -50.499,71.082 -82.277,80.512c-53.436,9.115 -62.923,40.287 -74.506,46.598Z" style="fill:none;stroke:#000;stroke-width:102.19px;"/><path d="M187.287,1617.91c-5.809,-44.841 -6.544,-122.849 -0.481,-177.127c-0.47,0.017 131.024,-10.398 275.979,-109.468c0.126,0.375 103.659,86.361 276.521,109.054c0.402,0.304 9.066,152.163 -84.221,361.437c-3.171,-67.882 6.692,-180.11 6.692,-180.11c18.701,-2.121 44.92,15.615 44.92,15.615c-26.813,-77.231 -100.81,-84.795 -100.81,-84.795c30.785,-156.176 -134.799,-177.233 -134.799,-177.233l39.434,123.836c0,0 6.41,-42.33 7.915,-50.509c11.39,10.045 22.815,43.693 23.498,45.222c12.585,52.982 -28.276,62.951 -31.671,63.88c-0.851,-4.477 -3.774,-52.867 -32.185,-100.704c-28.411,-47.838 -79.614,-59.866 -79.614,-59.866c2.98,35.619 21.948,68.665 21.948,68.665c-0,0 40.536,4.624 44.902,6.711c-22.785,-0.243 -98.393,6.131 -121.245,18.282c-33.744,17.738 -50.499,71.082 -82.277,80.512c-53.436,9.115 -62.923,40.287 -74.506,46.598Z" style="fill:#fff;"/><path d="M510.522,1499.12l-39.434,-123.836c-0,-0 165.584,21.057 134.799,177.233c0,0 73.997,7.564 100.81,84.795c-0,-0 -26.219,-17.736 -44.92,-15.615c-0,0 84.664,155.983 -16.098,266.925c-0,0 7.571,-31.303 -12.164,-60.087c0,0 -0.445,23.685 -10.685,42.603c-11.429,29.37 -107.402,98.452 -117.058,150.804c3.623,-41.413 9.148,-104.74 9.148,-104.74c-0,0 -26.956,36.688 -61.226,137.094c-10.998,-16.225 -37.424,-59.451 -38.948,-74.936c0,0 -18.727,-56.957 -1.338,-114.028l-47.885,33.923c0,0 29.787,-53.3 23.875,-116.789c0,-0 23.802,9.413 36.909,55.11c11.697,45.636 10.07,55.097 22.995,77.093c1.732,-3.462 3.04,-27.408 69.482,-79.988c2.715,-2.165 74.954,-54.797 38.519,-161.015c0,-0 63.437,28.422 75.046,73.477c0.831,-4.241 2.002,-110.307 -118.362,-140.214c-4.901,-1.938 -9.415,2.222 -39.211,-44.519c0,-0 -13.09,-16.769 -8.654,13.676c-0,0 4.487,22.945 -14.94,22.766c0,-0 -127.448,4.833 -88.295,60.237c39.153,55.404 49.429,57.761 55.426,78.64c5.996,20.879 -1.96,31.354 -4.885,35.71c0,0 -19.73,-20.457 -57.899,-22.017c-0,0 -61.505,-4.31 -76.428,16.494c-0,-0 -8.107,1.72 -9.117,8.172c1.553,3.506 5.365,8.544 -8.469,6.436c-13.834,-2.108 -79.736,-5.228 -62.755,-69.596c6.66,5.07 8.784,22.393 20.785,22.476c15.77,4.51 97.508,-10.982 99.171,-48.609c-8.441,-48.13 -136.345,-45.248 -114.468,19.696c-1.476,0.375 -10.197,-3.928 -38.409,-34.633c-4.328,-3.619 -7.532,-6.548 -14.899,-9.646c-5.278,-4.013 -19.918,-18.752 -27.498,-36.983c-5.646,-10.369 -2.209,-15.485 1.549,-17.824c9.317,-4.588 30.13,-3.283 53.472,-13.085c18.366,-10.535 17.676,-11.808 83.33,-23.007c31.778,-9.43 48.533,-62.774 82.277,-80.512c22.852,-12.151 98.46,-18.525 121.245,-18.282c-4.366,-2.087 -44.902,-6.711 -44.902,-6.711c-0,0 -18.968,-33.046 -21.948,-68.665c-0,0 51.203,12.028 79.614,59.866c28.411,47.837 31.334,96.227 32.185,100.704c3.395,-0.929 44.256,-10.898 31.671,-63.88c-0.683,-1.529 -12.108,-35.177 -23.498,-45.222c-1.505,8.179 -7.915,50.509 -7.915,50.509Zm-176.391,46.278c25.007,-6.748 46.913,-14.458 69.69,-22.939l-26.322,43.681c0,0 -23.751,-3.448 -61.117,12.851l17.749,-33.593Z" style="fill:#fff;stroke:#000;stroke-width:20.36px;stroke-linecap:butt;stroke-linejoin:round;"/></g><g><text x="815.553px" y="1591.54px" style="font-family:'RobotoSlab-Bold', 'Roboto Slab';font-weight:700;font-size:260.27px;">D<tspan x="991.312px 1185.24px " y="1591.54px 1591.54px ">YV</tspan>ERGENT</text><text x="876.895px" y="1840.39px" style="font-family:'RobotoSlab-Bold', 'Roboto Slab';font-weight:700;font-size:260.27px;">S<tspan x="1048.38px 1227.62px 1408.52px 1619.15px 1811.1px 1914.85px 2106.42px " y="1840.39px 1840.39px 1840.39px 1840.39px 1840.39px 1840.39px 1840.39px ">ECURITY</tspan></text></g></svg>